<svg width="110" height="24" viewBox="0 0 110 24" fill="none" xmlns="http://www.w3.org/2000/svg">
<path d="M40.0125 0.907814L40.0337 2.95719C39.4669 2.21789 38.7466 1.6308 37.8673 1.20136C36.9827 0.77735 35.8863 0.559909 34.5832 0.559909C33.4762 0.559909 32.4433 0.766478 31.4846 1.16874C30.5258 1.57101 29.6995 2.15266 29.0003 2.90283C28.3011 3.653 27.7503 4.54994 27.353 5.58279C26.961 6.61019 26.7651 7.73545 26.7651 8.96399C26.7651 10.1925 26.961 11.3667 27.353 12.4267C27.745 13.4759 28.2959 14.3837 29.0003 15.1339C29.6995 15.884 30.5258 16.4766 31.4846 16.906C32.4433 17.33 33.4762 17.5475 34.5832 17.5475C35.8916 17.5475 36.988 17.3246 37.8673 16.8843C38.7466 16.4494 39.4669 15.8677 40.0337 15.1502L40.0125 17.1995H43.821V0.907814H40.0125ZM39.6258 10.9699C39.4034 11.5841 39.0803 12.1169 38.6618 12.5681C38.2434 13.0247 37.7455 13.3835 37.1575 13.6444C36.5696 13.9162 35.9233 14.0412 35.2295 14.0412C34.5356 14.0412 33.8946 13.9108 33.3332 13.6444C32.7664 13.378 32.2844 13.0247 31.8818 12.5681C31.474 12.1169 31.1562 11.5896 30.9337 10.9699C30.7059 10.361 30.5947 9.70328 30.5947 9.00747C30.5947 8.31166 30.7059 7.66478 30.9337 7.06682C31.1562 6.46342 31.474 5.94156 31.8818 5.50125C32.2844 5.06093 32.7717 4.71302 33.3332 4.45753C33.8999 4.1966 34.5303 4.07157 35.2295 4.07157C35.9286 4.07157 36.5696 4.1966 37.1575 4.45753C37.7455 4.71302 38.2434 5.06093 38.6618 5.50125C39.0803 5.94156 39.4034 6.45798 39.6258 7.06682C39.8536 7.67021 39.9648 8.3171 39.9648 9.00747C39.9648 9.69785 39.8536 10.361 39.6258 10.9699Z" fill="white"/>
<path d="M57.6299 0.907814L53.3288 13.2802L49.0331 0.907814H44.8697L51.0618 17.205H55.5641L61.7932 0.907814H57.6299Z" fill="white"/>
<path d="M76.7198 5.44689C76.3384 4.43579 75.7928 3.57146 75.0778 2.84303C74.368 2.11461 73.5205 1.54926 72.5247 1.15243C71.5289 0.761042 70.4271 0.559909 69.2088 0.559909C67.874 0.559909 66.6981 0.799094 65.6864 1.27746C64.6694 1.75583 63.8166 2.38097 63.1333 3.1692C62.4394 3.95742 61.9151 4.86523 61.5602 5.87633C61.1947 6.8983 61.0199 7.96376 61.0199 9.07271C61.0199 10.1817 61.1894 11.2199 61.5443 12.2365C61.8939 13.2584 62.4077 14.1608 63.0857 14.9436C63.7637 15.7318 64.6112 16.3624 65.6229 16.8353C66.6399 17.3137 67.7999 17.5529 69.1082 17.5529C71.0469 17.5529 72.7207 17.0582 74.1296 16.0743C75.5439 15.0904 76.5185 13.7259 77.0641 11.9918L73.102 12.0299C72.7207 12.6985 72.2122 13.2095 71.5924 13.5574C70.9727 13.9053 70.2364 14.0738 69.3783 14.0738C68.6103 14.0738 67.9429 13.9488 67.3867 13.6879C66.82 13.4324 66.3485 13.0845 65.9619 12.6333C65.5805 12.1821 65.2892 11.6439 65.0985 11.0188C65.0084 10.7198 64.9396 10.41 64.8919 10.0838H77.1965C77.2442 9.87724 77.2707 9.67067 77.2813 9.45866C77.2919 9.25209 77.3025 9.01835 77.3025 8.76285C77.3025 7.56149 77.1065 6.45255 76.7198 5.44689ZM64.9714 7.4419C65.0031 7.28969 65.0349 7.14836 65.0773 7.00702C65.2574 6.39819 65.5328 5.85459 65.8877 5.39796C66.2532 4.93046 66.7034 4.57169 67.2596 4.29989C67.8158 4.03352 68.4514 3.90306 69.1718 3.90306C69.6644 3.90306 70.157 3.9846 70.6443 4.14768C71.1263 4.31076 71.5659 4.53907 71.9632 4.84349C72.3552 5.14247 72.6836 5.51755 72.9484 5.95787C73.208 6.39819 73.3722 6.89286 73.4357 7.44734H64.966L64.9714 7.4419Z" fill="white"/>
<path d="M93.9187 0.907814L86.4395 19.287C86.127 20.0535 85.9893 20.3796 85.5973 21.0048C85.2001 21.6299 84.7445 22.1572 84.2202 22.6029C83.7011 23.0433 83.1025 23.3857 82.4086 23.6249C81.7306 23.8641 80.9361 23.9891 80.025 23.9946H79.0822V20.5481H79.8079C80.7401 20.5318 81.4499 20.2926 81.9372 19.836C82.4457 19.3631 82.6364 19.0369 82.9542 18.1345L83.2243 17.3681L76.5185 0.896942H80.7189L85.2213 13.1062L89.7236 0.896942H93.9187V0.907814Z" fill="white"/>
<path d="M109.359 5.70781C108.93 4.6641 108.337 3.77259 107.585 3.01155C106.827 2.26138 105.927 1.66342 104.889 1.2231C103.856 0.782786 102.722 0.559909 101.509 0.559909C100.296 0.559909 99.1255 0.782786 98.0873 1.2231C97.0545 1.66342 96.154 2.26138 95.3965 3.01155C94.6391 3.76716 94.0511 4.6641 93.6221 5.70781C93.193 6.75153 92.9812 7.87135 92.9812 9.07271C92.9812 10.2741 93.193 11.3993 93.6221 12.4322C94.0511 13.465 94.6391 14.3565 95.3965 15.123C96.154 15.8895 97.0545 16.4874 98.0873 16.9169C99.1255 17.3409 100.27 17.5583 101.509 17.5583C102.749 17.5583 103.856 17.3409 104.889 16.9169C105.927 16.4874 106.827 15.8895 107.585 15.123C108.337 14.3619 108.93 13.465 109.359 12.4322C109.783 11.3993 110 10.2849 110 9.07271C110 7.86048 109.783 6.74609 109.359 5.70781ZM105.821 10.9862C105.582 11.5896 105.259 12.106 104.857 12.5354C104.449 12.9649 103.956 13.3019 103.384 13.5629C102.807 13.8183 102.182 13.9434 101.509 13.9434C100.836 13.9434 100.169 13.8183 99.597 13.5629C99.0196 13.3019 98.527 12.9649 98.1244 12.5354C97.7219 12.106 97.3988 11.595 97.1604 10.9862C96.922 10.3828 96.8002 9.74677 96.8002 9.07271C96.8002 8.39864 96.922 7.73001 97.1604 7.13205C97.3988 6.52865 97.7219 6.01223 98.1244 5.58822C98.527 5.15878 99.0249 4.81631 99.597 4.56082C100.174 4.30532 100.81 4.17486 101.509 4.17486C102.208 4.17486 102.812 4.30532 103.384 4.56082C103.962 4.81631 104.449 5.15878 104.857 5.58822C105.259 6.01223 105.582 6.52865 105.821 7.13205C106.059 7.73545 106.176 8.38233 106.176 9.07271C106.176 9.76308 106.059 10.3828 105.821 10.9862Z" fill="white"/>
<path d="M22.2627 18.3031H18.0517C16.5845 18.3031 15.3026 17.2539 14.9425 15.7481L11.1605 0H15.3291C16.7911 0 18.0729 1.04915 18.4331 2.54405L22.2627 18.3031Z" fill="white"/>
<path d="M0 18.3031H7.24081C8.41142 18.3031 9.48669 17.6344 10.0482 16.5527L13.5282 9.88811H6.32975C5.16444 9.88811 4.09448 10.5513 3.52771 11.6222L0 18.3031Z" fill="white"/>
<path d="M0.0582655 8.42038H4.86782C6.03843 8.42038 7.11369 7.75176 7.67516 6.66999L11.1605 0H6.38802C5.22801 0 4.15274 0.663194 3.58598 1.73409L0.0582655 8.42038Z" fill="white"/>
</svg>
